<?xml version="1.0" ?><svg id="Слой_1" style="enable-background:new 0 0 512 512;" version="1.1" viewBox="0 0 512 512" xml:space="preserve" xmlns="http://www.w3.org/2000/svg" xmlns:xlink="http://www.w3.org/1999/xlink"><style type="text/css">
	.st0{fill:#EBF2FF;}
	.st1{fill:#FFD6C6;}
	.st2{fill:#FFF7C3;}
	.st3{fill:none;stroke:#000000;stroke-width:12;stroke-miterlimit:10;}
</style><g><g><ellipse class="st0" cx="270.7" cy="368.2" rx="36.8" ry="53.3"/><path class="st1" d="M370.4,182.3H164.8l23.9-77.9c3.3-10.7,12.6-18,23.1-17.9l112.1,0.7c10.4,0.1,19.5,7.2,22.8,17.9L370.4,182.3    z"/><path class="st2" d="M408.2,313.4h-281c-1.3,0-2.2-1.3-1.8-2.6l37.3-121.5h209.9L410,310.7C410.4,312,409.5,313.4,408.2,313.4z"/><path class="st2" d="M329.4,468.3H212l21.3-33.8c5.6-8.8,15.2-14.1,25.7-14.1h22.4c10.2,0,19.7,5.1,25.3,13.6L329.4,468.3z"/><ellipse class="st3" cx="246" cy="368.2" rx="36.8" ry="53.3"/><path class="st3" d="M398,313.4H93.9c-1.4,0-2.4-1.4-1.9-2.7l68.5-206.3c3.6-10.7,13.6-18,25-17.9l121.3,0.7    c11.2,0.1,21.1,7.3,24.7,17.9l68.5,205.7C400.4,312,399.4,313.4,398,313.4z"/><path class="st3" d="M304.7,468.3H187.2l21.3-33.8c5.6-8.8,15.2-14.1,25.7-14.1h22.4c10.2,0,19.7,5.1,25.3,13.6L304.7,468.3z"/><line class="st3" x1="187.2" x2="148.3" y1="468.3" y2="468.3"/><line class="st3" x1="139.3" x2="119.5" y1="468.3" y2="468.3"/><path class="st2" d="M330.1,301.1"/><line class="st3" x1="242" x2="242" y1="86.5" y2="56.1"/><line class="st3" x1="119.6" x2="192.4" y1="266.9" y2="266.9"/><line class="st3" x1="221.6" x2="242" y1="266.9" y2="266.9"/><line class="st3" x1="327.8" x2="380.9" y1="266.9" y2="266.9"/><line class="st3" x1="276.5" x2="305.3" y1="266.9" y2="266.9"/></g><g><g><g><path d="M170.6,173.8c7.7,0,7.7-12,0-12C162.9,161.8,162.9,173.8,170.6,173.8L170.6,173.8z"/></g></g><g><g><path d="M214.8,173.8c7.7,0,7.7-12,0-12C207.1,161.8,207.1,173.8,214.8,173.8L214.8,173.8z"/></g></g><g><g><path d="M263.3,173.8c7.7,0,7.7-12,0-12C255.5,161.8,255.5,173.8,263.3,173.8L263.3,173.8z"/></g></g><g><g><path d="M316.9,173.8c7.7,0,7.7-12,0-12C309.2,161.8,309.2,173.8,316.9,173.8L316.9,173.8z"/></g></g></g></g></svg>